<svg width="48" height="48" viewBox="0 0 48 48" fill="none" xmlns="http://www.w3.org/2000/svg">
<g clip-path="url(#clip0_350_35)">
<circle cx="24" cy="24" r="24" fill="#F5F5DC"/>
<path d="M35.6846 29.6016C42.8565 47.0391 27.7016 40.9076 24.2002 37.4062C21.3262 40.9078 5.0283 47.5313 12.2237 29.6016C15.2471 24.1172 17.8576 22.3828 24.2002 22.3828C30.5428 22.3828 32.7783 24.1172 35.6846 29.6016Z" fill="#654321"/>
<path d="M12.876 18.1536C14.2448 21.9145 13.1634 25.7609 10.4605 26.7447C7.75763 27.7284 4.45682 25.4771 3.08794 21.7161C1.71907 17.9552 2.8005 14.1088 5.50338 13.125C8.20627 12.1413 11.5071 14.3926 12.876 18.1536Z" fill="#654321"/>
<path d="M22.5574 11.5472C23.3441 16.0089 21.6855 20.0306 18.8529 20.5301C16.0202 21.0296 13.0862 17.8176 12.2995 13.356C11.5128 8.89436 13.1713 4.87259 16.004 4.37312C18.8366 3.87365 21.7707 7.08561 22.5574 11.5472Z" fill="#654321"/>
<path d="M35.6826 13.356C34.8959 17.8176 31.9618 21.0296 29.1292 20.5301C26.2965 20.0307 24.638 16.0089 25.4247 11.5473C26.2114 7.08562 29.1454 3.87365 31.9781 4.37313C34.8107 4.8726 36.4693 8.89437 35.6826 13.356Z" fill="#654321"/>
<ellipse cx="40.2787" cy="19.9348" rx="5.20809" ry="7.24685" transform="rotate(20 40.2787 19.9348)" fill="#654321"/>
</g>
<defs>
<clipPath id="clip0_350_35">
<rect width="48" height="48" fill="white"/>
</clipPath>
</defs>
</svg>
