<svg width="44" height="30" viewBox="0 0 44 30" fill="none" xmlns="http://www.w3.org/2000/svg">
<path fill-rule="evenodd" clip-rule="evenodd" d="M22 0.5C12 0.5 3.46 6.72 0 15.5C3.46 24.28 12 30.5 22 30.5C32 30.5 40.54 24.28 44 15.5C40.54 6.72 32 0.5 22 0.5V0.5ZM22 25.5C16.48 25.5 12 21.02 12 15.5C12 9.98 16.48 5.5 22 5.5C27.52 5.5 32 9.98 32 15.5C32 21.02 27.52 25.5 22 25.5V25.5ZM22 9.5C18.68 9.5 16 12.18 16 15.5C16 18.82 18.68 21.5 22 21.5C25.32 21.5 28 18.82 28 15.5C28 12.18 25.32 9.5 22 9.5V9.5Z" fill="white"/>
</svg>
